<svg width="28" height="7" viewBox="0 0 28 7" fill="none" xmlns="http://www.w3.org/2000/svg">
<rect width="2" height="5" transform="matrix(-1 0 0 1 28 0)" fill="white"/>
<g filter="url(#filter0_d_398_1610)">
<path d="M9.72222 3.5C9.72222 2.11929 10.9659 1 12.5 1H25V6H12.5C10.9659 6 9.72222 4.88071 9.72222 3.5Z" fill="#FF7233"/>
<path d="M0.990966 4.38997C0.271291 3.9571 0.254641 3.02887 0.975832 2.59853C1.93277 2.02751 3.30295 1.625 4.08333 1.625H14.5V5.375H4.08333C3.29773 5.375 1.95045 4.96708 0.990966 4.38997Z" fill="#FF7233"/>
</g>
<path d="M28 0H0V1H28V0Z" fill="white"/>
<defs>
<filter id="filter0_d_398_1610" x="0.443024" y="1" width="24.557" height="6" filterUnits="userSpaceOnUse" color-interpolation-filters="sRGB">
<feFlood flood-opacity="0" result="BackgroundImageFix"/>
<feColorMatrix in="SourceAlpha" type="matrix" values="0 0 0 0 0 0 0 0 0 0 0 0 0 0 0 0 0 0 127 0" result="hardAlpha"/>
<feOffset dy="1"/>
<feComposite in2="hardAlpha" operator="out"/>
<feColorMatrix type="matrix" values="0 0 0 0 0.115385 0 0 0 0 0.0505531 0 0 0 0 0.00887574 0 0 0 1 0"/>
<feBlend mode="normal" in2="BackgroundImageFix" result="effect1_dropShadow_398_1610"/>
<feBlend mode="normal" in="SourceGraphic" in2="effect1_dropShadow_398_1610" result="shape"/>
</filter>
</defs>
</svg>
